<svg width="107" height="107" viewBox="0 0 107 107" fill="none" xmlns="http://www.w3.org/2000/svg">
<g clip-path="url(#clip0_1_10)">
<path fill-rule="evenodd" clip-rule="evenodd" d="M83.719 15.4664C92.5243 21.5252 99.3192 30.0716 103.231 40.0151C107.15 49.9518 108.002 60.8358 105.685 71.2632C103.367 81.6906 97.9902 91.1911 90.2344 98.5448C89.328 99.424 88.2716 100.14 87.113 100.644C85.9544 101.155 84.714 101.455 83.4532 101.523C82.1924 101.598 80.9247 101.448 79.7184 101.073C78.5121 100.705 77.3808 100.126 76.3721 99.3558C73.0871 96.9091 69.4341 95.0076 65.5494 93.7264C61.6579 92.4383 57.596 91.784 53.5 91.784C49.404 91.784 45.3353 92.4383 41.4506 93.7264C37.5659 95.0076 33.9061 96.9091 30.6211 99.3558C29.6261 100.119 28.5083 100.705 27.3089 101.08C26.1094 101.455 24.8554 101.612 23.6013 101.544C22.3473 101.482 21.1138 101.196 19.962 100.698C18.8102 100.201 17.7538 99.5057 16.8406 98.6402C9.03026 91.2592 3.6121 81.7042 1.29491 71.2087C-1.02229 60.7131 -0.129489 49.7678 3.85745 39.7902C7.8444 29.8058 14.7347 21.2526 23.6422 15.2347C32.5498 9.21682 43.059 6.00682 53.8135 6.03408C64.4999 6.12268 74.9136 9.41446 83.719 15.4664ZM63.832 84.5734C67.1169 83.2649 70.102 81.3021 72.6033 78.8077C75.1045 76.3065 77.0673 73.3282 78.3758 70.0432C79.6843 66.7651 80.3113 63.2484 80.2159 59.7181C80.2159 52.637 77.4012 45.849 72.392 40.8397C67.3827 35.8305 60.5879 33.0158 53.5 33.0158C46.4121 33.0158 39.6173 35.8305 34.608 40.8397C29.5988 45.849 26.7841 52.637 26.7841 59.7181C26.6887 63.2484 27.3157 66.7651 28.6242 70.0432C29.9327 73.3282 31.8955 76.3065 34.3968 78.8077C36.898 81.3021 39.8831 83.2649 43.1612 84.5734C46.4462 85.882 49.9629 86.509 53.5 86.4136C57.0303 86.509 60.547 85.882 63.832 84.5734Z" fill="#62D84E"/>
</g>
<defs>
<clipPath id="clip0_1_10">
<rect width="107" height="95.6185" fill="white" transform="translate(0 6)"/>
</clipPath>
</defs>
</svg>
